<svg width="251" height="233" viewBox="0 0 251 233" fill="none" xmlns="http://www.w3.org/2000/svg">
<path d="M27.9909 66C19.5825 62.6682 11.0253 59.6392 2.84013 55.7016C1.05428 54.8686 -0.136289 50.8552 0.0125324 48.3564C0.0125324 47.2962 4.0307 45.9332 6.33743 45.5546C8.1977 45.3274 10.2812 46.3875 12.2903 46.9176C13.4064 41.9198 14.4482 36.922 15.5643 32C16.7549 32 17.9455 32 19.0616 32C22.7078 42.7528 26.3539 53.4298 30 64.1826L27.9909 66Z" fill="#BB4747"/>
<path d="M184.068 12.3C188.832 11.1 192.765 10.05 196.622 9C196.773 9.6 196.924 10.2 197 10.725C190.42 18.15 183.841 25.575 177.261 33C175.976 32.55 174.69 32.1 173.404 31.65C173.253 22.725 172.799 13.8 173.102 4.95C173.102 3.225 175.9 1.65 177.413 0C179.152 1.725 181.421 3.15 182.555 5.175C183.614 7.125 183.538 9.75 184.068 12.3Z" fill="#BB4747"/>
<path d="M120.941 93C108.137 69.53 96.6058 48.2276 85 27C95.1832 29.5413 122.438 80.2933 120.941 93Z" fill="#BB4747"/>
<path d="M150.345 91C147.495 80.3955 162.978 42.7911 171.914 37C173.3 43.0167 157.586 83.1031 150.345 91Z" fill="#BB4747"/>
<path d="M89.6667 101C75.3704 100.259 38.8519 80.3333 37 71C55.5185 80.4074 73.2963 89.3704 91 98.4074C90.5556 99.2963 90.1111 100.185 89.6667 101Z" fill="#BB4747"/>
<path d="M177 99.8449C194.085 91.3287 211.169 82.8865 229 74C227.956 82.6643 190.802 101.918 177 99.8449Z" fill="#BB4747"/>
<path d="M250.925 70.8595C248.434 71.6791 245.718 73.3183 243.454 72.9458C241.643 72.6477 238.926 69.8164 239.002 68.1772C239.002 66.389 241.416 63.9302 243.378 63.0361C244.284 62.6635 246.623 65.2713 248.283 66.538C249.189 67.9537 250.094 69.4438 251 70.8595H250.925Z" fill="#BB4747"/>
</svg>
